# xmcd CD database file
#
# Track frame offsets:
#	150
#	14127
#	28738
#	42475
#	54611
#	68588
#	81329
#	94328
#	106994
#	121592
#	132378
#	146701
#	163916
#	184265
#	205732
#	219139
#	238349
#	255780
#	266571
#	281222
#
# Disc length: 3954 seconds
#
# Revision: 0
# Processed by: cddbd v1.5.1PL0 Copyright (c) Steve Scherf et al.
# Submitted via: CDex 1.51
#
DISCID=2e0f7014
DTITLE=Bud Powell - The Amazing Bud Powell, Vol 1
DYEAR=1949
DGENRE=Jazz
TTITLE0=Bouncin' With Bud (take 1)
TTITLE1=Bouncin' With Bud (take 2)
TTITLE2=Bouncin' With Bud
TTITLE3=Wail (alternate take)
TTITLE4=Wail
TTITLE5=Dance Of The Infidels(alternate take)
TTITLE6=Dance Of The Infidels
TTITLE7=52nd Street Theme
TTITLE8=You Go To My Head
TTITLE9=Ornithology
TTITLE10=Ornithology (alternate take)
TTITLE11=Un Poco Loco (take 1)
TTITLE12=Un Poco Loco (take 2)
TTITLE13=Un Poco Loco
TTITLE14=Over The Rainbow
TTITLE15=A Night In Tunisia
TTITLE16=A Night In Tunisia (alternate take)
TTITLE17=It Could Happen To You (alternate take) 
TTITLE18=It Could Happen To You
TTITLE19=Parisian thoroughfare
EXTD=YEAR: 1949
EXTT0=
EXTT1=
EXTT2=
EXTT3=
EXTT4=
EXTT5=
EXTT6=
EXTT7=
EXTT8=
EXTT9=
EXTT10=
EXTT11=
EXTT12=
EXTT13=
EXTT14=
EXTT15=
EXTT16=
EXTT17=
EXTT18=
EXTT19=
PLAYORDER=
